<svg width="24" height="24" fill="none" xmlns="http://www.w3.org/2000/svg" viewBox="0 0 24 24"><path d="M21 5.25H3c-.41 0-.75-.34-.75-.75s.34-.75.75-.75h18c.41 0 .75.34.75.75s-.34.75-.75.75zM21.001 10.25h-9.47c-.41 0-.75-.34-.75-.75s.34-.75.75-.75h9.47c.41 0 .75.34.75.75s-.34.75-.75.75zM21 15.25H3c-.41 0-.75-.34-.75-.75s.34-.75.75-.75h18c.41 0 .75.34.75.75s-.34.75-.75.75zM21.001 20.25h-9.47c-.41 0-.75-.34-.75-.75s.34-.75.75-.75h9.47c.41 0 .75.34.75.75s-.34.75-.75.75z" fill="currentColor"/></svg>