<svg width="24" height="24" fill="none" xmlns="http://www.w3.org/2000/svg" viewBox="0 0 24 24"><path d="M21.97 12c0 3.31-2.69 6-6 6a5.93 5.93 0 01-4-1.54c1.23-1.09 2-2.69 2-4.46s-.77-3.37-2-4.46a5.93 5.93 0 014-1.54c3.31 0 6 2.69 6 6z" stroke="currentColor" stroke-width="1.5" stroke-linecap="round" stroke-linejoin="round"/><path d="M3.44 15.92A5.972 5.972 0 011.97 12c0-3.31 2.69-6 6-6 1.54 0 2.94.58 4 1.54 1.23 1.09 2 2.69 2 4.46s-.77 3.37-2 4.46a5.93 5.93 0 01-4 1.54" stroke="currentColor" stroke-width="1.5" stroke-linecap="round" stroke-linejoin="round"/></svg>