<svg width="24" height="24" fill="none" xmlns="http://www.w3.org/2000/svg" viewBox="0 0 24 24"><path d="M2 8c0-4 1-5 5-5h10c4 0 5 1 5 5v8c0 4-1 5-5 5H7c-4 0-5-1-5-5v-3.6M14 8h5M15 12h4M17 16h2" stroke="currentColor" stroke-width="1.5" stroke-linecap="round" stroke-linejoin="round"/><path d="M8.5 11.29a1.81 1.81 0 100-3.62 1.81 1.81 0 000 3.62zM12 16.33a3.02 3.02 0 00-2.74-2.72 7.72 7.72 0 00-1.52 0A3.03 3.03 0 005 16.33" stroke="currentColor" stroke-width="1.5" stroke-linecap="round" stroke-linejoin="round"/></svg>