<svg width="24" height="24" fill="none" xmlns="http://www.w3.org/2000/svg" viewBox="0 0 24 24"><path d="M17.54 8.31a2.46 2.46 0 100-4.92 2.46 2.46 0 000 4.92zM8.92 5.85c0-1.36-1.1-2.46-2.46-2.46C5.1 3.39 4 4.49 4 5.85c0 1.36 1.1 2.46 2.46 2.46M17.54 20.62c1.36 0 2.46-1.1 2.46-2.46 0-1.36-1.1-2.46-2.46-2.46-1.36 0-2.46 1.1-2.46 2.46M6.46 20.61a2.46 2.46 0 100-4.92 2.46 2.46 0 000 4.92z" stroke="currentColor" stroke-width="1.5" stroke-miterlimit="10" stroke-linecap="round" stroke-linejoin="round"/></svg>