<svg width="24" height="23.49" fill="none" xmlns="http://www.w3.org/2000/svg" viewBox="0 0 47 46"><path d="M12.63 3.86c0-1.42 1.05-2.58 2.58-2.58h3.21c1.42 0 2.58 1.16 2.58 2.58v5.8" stroke="currentColor" stroke-width="1.5" stroke-linecap="round" stroke-linejoin="round"/><path d="M21 9.65h-5.8c-.96 0-1.72-.45-2.16-1.14M21 9.65c0 6.05-1.13 7.05-4.53 9.07M9.37 9.65h-5.8C2.04 9.65.99 8.49.99 7.07V3.85c0-1.42 1.05-2.58 2.58-2.58H6.8c1.42 0 2.58 1.16 2.58 2.58v5.8M9.371 9.65c0 6.05-1.13 7.05-4.53 9.07" stroke="currentColor" stroke-width="1.5" stroke-linecap="round" stroke-linejoin="round"/></svg>