<svg width="24" height="24" fill="none" xmlns="http://www.w3.org/2000/svg" viewBox="0 0 24 24"><path d="M17 11.84h-2.68c-.71 0-1.19-.54-1.19-1.19V9.16c0-.65.48-1.19 1.19-1.19h1.49c.65 0 1.19.54 1.19 1.19v2.68zM17 11.84c0 2.79-.52 3.26-2.09 4.19M10.86 11.84H8.18c-.71 0-1.19-.54-1.19-1.19V9.16c0-.65.48-1.19 1.19-1.19h1.49c.65 0 1.19.54 1.19 1.19v2.68zM10.86 11.84c0 2.79-.52 3.26-2.09 4.19" stroke="currentColor" stroke-width="1.5" stroke-linecap="round" stroke-linejoin="round"/><path d="M4 6c-1.25 1.67-2 3.75-2 6 0 5.52 4.48 10 10 10s10-4.48 10-10S17.52 2 12 2c-1.43 0-2.8.3-4.03.85" stroke="currentColor" stroke-width="1.5" stroke-linecap="round" stroke-linejoin="round"/></svg>