<svg width="24" height="24" fill="none" xmlns="http://www.w3.org/2000/svg" viewBox="0 0 24 24"><path opacity=".4" d="M17 20.5H7c-3 0-5-1.5-5-5v-7c0-3.5 2-5 5-5h10c3 0 5 1.5 5 5v7c0 3.5-2 5-5 5z" fill="currentColor"/><path d="M6 16.75c-.41 0-.75-.34-.75-.75V8c0-.41.34-.75.75-.75s.75.34.75.75v8c0 .41-.34.75-.75.75zM9 12.75c-.41 0-.75-.34-.75-.75V8c0-.41.34-.75.75-.75s.75.34.75.75v4c0 .41-.34.75-.75.75zM9 16.75c-.41 0-.75-.34-.75-.75v-1c0-.41.34-.75.75-.75s.75.34.75.75v1c0 .41-.34.75-.75.75zM15 9.75c-.41 0-.75-.34-.75-.75V8c0-.41.34-.75.75-.75s.75.34.75.75v1c0 .41-.34.75-.75.75zM12 16.75c-.41 0-.75-.34-.75-.75V8c0-.41.34-.75.75-.75s.75.34.75.75v8c0 .41-.34.75-.75.75zM15 16.75c-.41 0-.75-.34-.75-.75v-4c0-.41.34-.75.75-.75s.75.34.75.75v4c0 .41-.34.75-.75.75zM18 16.75c-.41 0-.75-.34-.75-.75V8c0-.41.34-.75.75-.75s.75.34.75.75v8c0 .41-.34.75-.75.75z" fill="currentColor"/></svg>