<svg width="24" height="24" fill="none" xmlns="http://www.w3.org/2000/svg" viewBox="0 0 24 24"><path d="M21 5.25H3c-.41 0-.75-.34-.75-.75s.34-.75.75-.75h18c.41 0 .75.34.75.75s-.34.75-.75.75z" fill="currentColor"/><path opacity=".4" d="M12.47 10.25H3c-.41 0-.75-.34-.75-.75s.34-.75.75-.75h9.47a.749.749 0 110 1.5z" fill="currentColor"/><path d="M21 15.25H3c-.41 0-.75-.34-.75-.75s.34-.75.75-.75h18c.41 0 .75.34.75.75s-.34.75-.75.75z" fill="currentColor"/><path opacity=".4" d="M12.47 20.25H3c-.41 0-.75-.34-.75-.75s.34-.75.75-.75h9.47a.749.749 0 110 1.5z" fill="currentColor"/></svg>