<svg width="24" height="24" fill="none" xmlns="http://www.w3.org/2000/svg" viewBox="0 0 24 24"><path opacity=".4" d="M2 9.75c-.41 0-.75-.34-.75-.75V6.5c0-2.9 2.36-5.25 5.25-5.25H9c.41 0 .75.34.75.75s-.34.75-.75.75H6.5c-2.07 0-3.75 1.68-3.75 3.75V9c0 .41-.34.75-.75.75z" fill="currentColor"/><path d="M22 9.75c-.41 0-.75-.34-.75-.75V6.5c0-2.07-1.68-3.75-3.75-3.75H15c-.41 0-.75-.34-.75-.75s.34-.75.75-.75h2.5c2.89 0 5.25 2.35 5.25 5.25V9c0 .41-.34.75-.75.75z" fill="currentColor"/><path opacity=".4" d="M17.5 22.75H16c-.41 0-.75-.34-.75-.75s.34-.75.75-.75h1.5c2.07 0 3.75-1.68 3.75-3.75V16c0-.41.34-.75.75-.75s.75.34.75.75v1.5c0 2.9-2.36 5.25-5.25 5.25z" fill="currentColor"/><path d="M9 22.75H6.5c-2.89 0-5.25-2.35-5.25-5.25V15c0-.41.34-.75.75-.75s.75.34.75.75v2.5c0 2.07 1.68 3.75 3.75 3.75H9c.41 0 .75.34.75.75s-.34.75-.75.75zM8.5 11.38a2.88 2.88 0 100-5.76 2.88 2.88 0 000 5.76z" fill="currentColor"/><path opacity=".4" d="M7.5 18.38a1.88 1.88 0 100-3.76 1.88 1.88 0 000 3.76zM16.5 9.38a1.88 1.88 0 100-3.76 1.88 1.88 0 000 3.76z" fill="currentColor"/><path d="M15.5 18.38a2.88 2.88 0 100-5.76 2.88 2.88 0 000 5.76z" fill="currentColor"/></svg>