<svg width="24" height="24" fill="none" xmlns="http://www.w3.org/2000/svg" viewBox="0 0 24 24"><path d="M20.47 21.53a.75.75 0 101.06-1.06l-1.06 1.06zm-2.44-4.56a.75.75 0 10-1.06 1.06l1.06-1.06zm3.5 3.5l-3.5-3.5-1.06 1.06 3.5 3.5 1.06-1.06zm-2.28-8.97a7.75 7.75 0 01-7.75 7.75v1.5a9.25 9.25 0 009.25-9.25h-1.5zm-7.75 7.75a7.75 7.75 0 01-7.75-7.75h-1.5a9.25 9.25 0 009.25 9.25v-1.5zM3.75 11.5a7.75 7.75 0 017.75-7.75v-1.5a9.25 9.25 0 00-9.25 9.25h1.5zm7.75-7.75a7.75 7.75 0 017.75 7.75h1.5a9.25 9.25 0 00-9.25-9.25v1.5z" fill="currentColor"/></svg>