<svg width="24" height="24" fill="none" xmlns="http://www.w3.org/2000/svg" viewBox="0 0 24 24"><path d="M17.47 17.53a.75.75 0 101.06-1.06l-1.06 1.06zM13 12l-.53-.53a.75.75 0 000 1.06L13 12zm5.53-4.47a.75.75 0 00-1.06-1.06l1.06 1.06zm-8.06 10a.75.75 0 101.06-1.06l-1.06 1.06zM6 12l-.53-.53a.75.75 0 000 1.06L6 12zm5.53-4.47a.75.75 0 00-1.06-1.06l1.06 1.06zm7 8.94l-5-5-1.06 1.06 5 5 1.06-1.06zm-5-3.94l5-5-1.06-1.06-5 5 1.06 1.06zm-2 3.94l-5-5-1.06 1.06 5 5 1.06-1.06zm-5-3.94l5-5-1.06-1.06-5 5 1.06 1.06z" fill="currentColor"/></svg>