<svg width="24" height="24" fill="none" xmlns="http://www.w3.org/2000/svg" viewBox="0 0 24 24"><path d="M5.47 16.47a.75.75 0 101.06 1.06l-1.06-1.06zM11 12l.53.53a.75.75 0 000-1.06L11 12zM6.53 6.47a.75.75 0 00-1.06 1.06l1.06-1.06zm5.94 10a.75.75 0 101.06 1.06l-1.06-1.06zM18 12l.53.53a.75.75 0 000-1.06L18 12zm-4.47-5.53a.75.75 0 10-1.06 1.06l1.06-1.06zm-7 11.06l5-5-1.06-1.06-5 5 1.06 1.06zm5-6.06l-5-5-1.06 1.06 5 5 1.06-1.06zm2 6.06l5-5-1.06-1.06-5 5 1.06 1.06zm5-6.06l-5-5-1.06 1.06 5 5 1.06-1.06z" fill="currentColor"/></svg>