<svg width="24" height="24" fill="none" xmlns="http://www.w3.org/2000/svg" viewBox="0 0 24 24"><path d="M2.335 11.33a.75.75 0 00-.67 1.34l.67-1.34zm20 1.34a.75.75 0 10-.67-1.34l.67 1.34zm-10.427 4.263l-.138.737.138-.738zm.184 0l.138.737-.138-.738zm-9.757-.604a.75.75 0 00-.67 1.342l.67-1.342zm20 1.342a.75.75 0 10-.67-1.342l.67 1.342zm-10.693 4.15l-.335.671.335-.67zm.266.111l-.138.738.138-.738zm.45-.11l.335.67-.335-.67zm-.266.11l.138.738-.138-.738zM2 7l-.335-.67a.75.75 0 000 1.34L2 7zm20 0l.335.67a.75.75 0 000-1.34L22 7zm-10.092 4.932l-.138.738.138-.738zm.184 0l.138.738-.138-.738zm-.45-9.753l.336.67-.336-.67zm.266-.111l-.138-.737.138.737zm.45.11l-.336.672.336-.671zm-.266-.11l.138-.737-.138.737zM1.665 12.67l9.642 4.821.67-1.342-9.642-4.82-.67 1.34zm11.028 4.821l9.642-4.821-.67-1.342-9.643 4.821.671 1.342zm-1.386 0c.092.046.266.14.463.178l.276-1.475c.04.008.063.019.052.014a8.28 8.28 0 01-.12-.058l-.671 1.341zm.715-1.342a8.28 8.28 0 01-.12.059c-.011.005.012-.006.052-.014l.276 1.475c.197-.037.37-.132.463-.178l-.67-1.342zm-.252 1.52c.152.028.308.028.46 0l-.276-1.475a.25.25 0 01.092 0l-.276 1.475zm-10.105 0l9.642 4.822.67-1.342-9.642-4.82-.67 1.34zm11.028 4.822l9.642-4.821-.67-1.342-9.643 4.821.671 1.342zm-1.386 0c.092.046.266.14.463.178l.276-1.475c.04.008.063.019.052.014a8.28 8.28 0 01-.12-.058l-.671 1.341zm.715-1.342a8.28 8.28 0 01-.12.059c-.011.005.012-.006.052-.014l.276 1.475c.197-.037.37-.132.463-.178l-.67-1.342zm-.252 1.52c.152.028.308.028.46 0l-.276-1.475a.25.25 0 01.092 0l-.276 1.475zm-.463-21.162L1.665 6.33l.67 1.342 9.643-4.821-.671-1.342zM1.665 7.671l9.642 4.821.67-1.342-9.642-4.82-.67 1.34zm11.028 4.821l9.642-4.821-.67-1.342-9.643 4.821.671 1.342zm9.642-6.163l-9.642-4.82-.67 1.34 9.642 4.822.67-1.342zm-11.028 6.163c.092.046.266.14.463.178l.276-1.475c.04.008.063.019.052.014a8.28 8.28 0 01-.12-.059l-.671 1.342zm.715-1.342a8.28 8.28 0 01-.12.059c-.011.005.012-.006.052-.014l.276 1.475c.197-.037.37-.132.463-.178l-.67-1.342zm-.252 1.52c.152.028.308.028.46 0l-.276-1.475a.25.25 0 01.092 0l-.276 1.475zm.208-9.82a8.99 8.99 0 01.12-.059c.011-.005-.012.006-.052.014L11.77 1.33c-.197.036-.37.131-.463.177l.67 1.342zm.715-1.342c-.092-.046-.266-.14-.463-.177l-.276 1.474c-.04-.008-.063-.019-.052-.014l.04.019.08.04.671-1.342zm-.647 1.297a.25.25 0 01-.092 0l.276-1.474a1.25 1.25 0 00-.46 0l.276 1.474z" fill="currentColor"/></svg>