<svg width="24" height="24" fill="none" xmlns="http://www.w3.org/2000/svg" viewBox="0 0 24 24"><path d="M13.53 11.53a.75.75 0 10-1.06-1.06l1.06 1.06zM2.97 19.97a.75.75 0 101.06 1.06l-1.06-1.06zM14.432 2.913a.75.75 0 10-.83 1.25l.83-1.25zm5.318 7.408a.75.75 0 001.251-.827l-1.251.827zm-.403-8.05l.123.74-.123-.74zm2.302 2.301l-.74-.123.74.123zM6.446 10.9l-.548-.513.548.513zm6.576 6.575l-.512-.547.512.547zm7.81-7.995l.74.123-.74-.123zm-.74 1.382l-.513-.547.512.547zm-5.65-7.773l-.123-.74.123.74zm-1.383.741l.548.513-.548-.513zM6.38 6.938l-.236.711.237-.711zm2.638 1.67a.75.75 0 10.475-1.423l-.475 1.423zM2.56 9.54l.485.572-.485-.572zm2.858-2.418l.484.573-.484-.573zm-.11 5.82a.75.75 0 00.52-1.407l-.52 1.408zm-2.447-1.7l.259-.704-.26.703zm9.817 9.817l-.704.259.704-.26zm-.294-2.967a.75.75 0 10-1.407.519l1.407-.519zm4.413.41l.573.484-.573-.484zM14.38 21.36l-.573-.485.573.485zm2.356-6.931a.75.75 0 10-1.423.474l1.423-.475zm.247 3.112l.711-.238-.711.238zm-4.514-7.071l-9.5 9.5 1.061 1.06 9.5-9.5-1.06-1.06zm1.134-6.307a21.86 21.86 0 013.368 2.76l1.06-1.06a23.362 23.362 0 00-3.598-2.95l-.83 1.25zm3.368 2.76a21.855 21.855 0 012.78 3.398l1.251-.827a23.361 23.361 0 00-2.97-3.63l-1.061 1.06zm-2.406-3.095l4.906-.818-.246-1.48-4.907.819.247 1.48zm6.345.62l-.818 4.907 1.48.247.818-4.906-1.48-.247zm-1.331 5.866l-7.07 6.613 1.025 1.095 7.07-6.613-1.025-1.095zM6.994 11.41l6.613-7.07-1.096-1.024-6.613 7.07 1.096 1.024zm12.477-8.4a1.25 1.25 0 011.439 1.438l1.48.247a2.75 2.75 0 00-3.165-3.165l.246 1.48zM7.084 16.835a3.902 3.902 0 01-.09-5.425l-1.096-1.025a5.402 5.402 0 00.125 7.511l1.061-1.06zm-1.06 1.061a5.402 5.402 0 007.51.125l-1.024-1.095a3.902 3.902 0 01-5.426-.09l-1.06 1.06zm14.068-8.542a1.694 1.694 0 01-.513.959l1.024 1.095c.513-.48.853-1.115.969-1.807l-1.48-.247zM14.32 2.35a3.193 3.193 0 00-1.808.968l1.096 1.025c.254-.272.59-.453.958-.514l-.246-1.48zm-8.176 5.3l2.874.959.475-1.423-2.875-.959-.474 1.423zm-3.098 2.464l2.857-2.417-.969-1.145-2.857 2.417.969 1.145zm2.782 1.423l-2.707-.997-.519 1.407 2.708.998.518-1.408zM2.076 8.968c-1.024.866-.733 2.515.525 2.978l.519-1.407a.25.25 0 01-.075-.426l-.969-1.145zm4.54-2.742a1.75 1.75 0 00-1.683.325l.969 1.145a.25.25 0 01.24-.047l.475-1.423zM13.383 20.8l-.998-2.707-1.407.519.997 2.707 1.408-.519zm2.843-2.782l-2.418 2.857 1.145.97 2.418-2.858-1.145-.969zm-.912-3.115l.958 2.875 1.423-.475-.958-2.875-1.423.475zm2.057 4.084a1.75 1.75 0 00.324-1.684l-1.423.475a.25.25 0 01-.046.24l1.145.97zm-5.396 2.332c.464 1.258 2.112 1.549 2.978.525l-1.145-.969a.25.25 0 01-.425-.075l-1.408.519z" fill="currentColor"/></svg>