<svg width="24" height="24" fill="none" xmlns="http://www.w3.org/2000/svg" viewBox="0 0 24 24"><path d="M8.383 8.751a.75.75 0 001.415.498L8.383 8.75zM14.92 10l-.75-.001V10h.75zm-3.237 2.289a.75.75 0 00.474 1.422l-.474-1.422zM12 16.25a.75.75 0 000 1.5v-1.5zm.01 1.5a.75.75 0 000-1.5v1.5zM21.25 12A9.25 9.25 0 0112 21.25v1.5c5.937 0 10.75-4.813 10.75-10.75h-1.5zM12 21.25A9.25 9.25 0 012.75 12h-1.5c0 5.937 4.813 10.75 10.75 10.75v-1.5zM2.75 12A9.25 9.25 0 0112 2.75v-1.5C6.063 1.25 1.25 6.063 1.25 12h1.5zM12 2.75A9.25 9.25 0 0121.25 12h1.5c0-5.937-4.813-10.75-10.75-10.75v1.5zM9.797 9.249a2.25 2.25 0 01.983-1.193l-.76-1.293A3.75 3.75 0 008.383 8.75l1.415.498zm.983-1.193a2.25 2.25 0 011.52-.278l.254-1.478a3.75 3.75 0 00-2.534.463l.76 1.293zm1.52-.278c.524.09 1 .362 1.341.769l1.148-.966A3.75 3.75 0 0012.554 6.3L12.3 7.778zm1.341.769c.342.406.53.92.529 1.452l1.5.002a3.75 3.75 0 00-.881-2.42l-1.148.966zM14.17 10c0 .602-.461 1.156-1.166 1.626a6.304 6.304 0 01-1.302.656l-.017.006h-.003l.238.712.238.711h.001l.004-.001.01-.004.032-.011a7.565 7.565 0 00.489-.197 7.791 7.791 0 001.142-.624c.795-.53 1.834-1.476 1.834-2.874h-1.5zM12 17.75h.01v-1.5H12v1.5z" fill="currentColor"/></svg>