<svg width="24" height="24" fill="none" xmlns="http://www.w3.org/2000/svg" viewBox="0 0 24 24"><path d="M12.75 8a.75.75 0 00-1.5 0h1.5zm-1.5 4a.75.75 0 001.5 0h-1.5zm.75 3.25a.75.75 0 000 1.5v-1.5zm.01 1.5a.75.75 0 000-1.5v1.5zM21.25 12A9.25 9.25 0 0112 21.25v1.5c5.937 0 10.75-4.813 10.75-10.75h-1.5zM12 21.25A9.25 9.25 0 012.75 12h-1.5c0 5.937 4.813 10.75 10.75 10.75v-1.5zM2.75 12A9.25 9.25 0 0112 2.75v-1.5C6.063 1.25 1.25 6.063 1.25 12h1.5zM12 2.75A9.25 9.25 0 0121.25 12h1.5c0-5.937-4.813-10.75-10.75-10.75v1.5zM11.25 8v4h1.5V8h-1.5zm.75 8.75h.01v-1.5H12v1.5z" fill="currentColor"/></svg>