<svg width="24" height="24" fill="none" xmlns="http://www.w3.org/2000/svg" viewBox="0 0 24 24"><path d="M13 2l.744.093a.75.75 0 00-1.32-.573L13 2zm-1 12l.744.093A.75.75 0 0012 13.25V14zm-1 8l-.744-.093a.75.75 0 001.32.573L11 22zm1-12l-.744-.093a.75.75 0 00.744.843V10zm7.906 1.312l.577.48-.577-.48zm.526-.804l-.75-.012.75.011zm-.185-.397l.471-.583-.471.583zM4.093 12.688l-.576-.48.576.48zm-.526.804l.75.012-.75-.011zm.186.397l-.471.583.471-.583zm8.67-12.37L3.518 12.209l1.152.96L13.576 2.48l-1.152-.96zM4.709 14.75H12v-1.5H4.708v1.5zm6.548-.843l-1 8 1.488.186 1-8-1.488-.186zm.32 8.573l8.907-10.688-1.153-.96-8.906 10.688 1.152.96zm7.716-13.23H12v1.5h7.292v-1.5zm-6.548.843l1-8-1.488-.186-1 8 1.488.186zm7.739 1.7c.164-.198.322-.386.433-.548.103-.148.261-.402.266-.726l-1.5-.023a.393.393 0 01.028-.146c.005-.01.001 0-.028.043a7.395 7.395 0 01-.352.439l1.153.96zm-1.191-1.043c.287 0 .45 0 .562.01.052.005.063.01.051.007a.393.393 0 01-.13-.073l.943-1.166c-.252-.204-.549-.245-.728-.261-.196-.018-.44-.017-.698-.017v1.5zm1.89-.231a1.25 1.25 0 00-.464-.991l-.943 1.166a.25.25 0 01-.093-.198l1.5.023zM3.517 12.208c-.165.197-.322.385-.434.547-.102.148-.26.402-.265.726l1.5.023a.392.392 0 01-.028.146c-.005.01-.002 0 .028-.043.063-.092.168-.218.351-.439l-1.152-.96zm1.19 1.042c-.286 0-.45 0-.562-.01-.051-.005-.062-.01-.05-.007a.394.394 0 01.13.073l-.943 1.166c.252.204.548.245.728.261.195.018.44.017.698.017v-1.5zm-1.89.231c-.005.384.166.75.465.991l.943-1.166a.25.25 0 01.092.198l-1.5-.023z" fill="currentColor"/></svg>