<svg width="24" height="24" fill="none" xmlns="http://www.w3.org/2000/svg" viewBox="0 0 24 24"><path d="M12.75 16a.75.75 0 01-1.5 0h1.5zm-1.5-4a.75.75 0 011.5 0h-1.5zM12 8.75a.75.75 0 010-1.5v1.5zm.01-1.5a.75.75 0 010 1.5v-1.5zM21.25 12A9.25 9.25 0 0012 2.75v-1.5c5.937 0 10.75 4.813 10.75 10.75h-1.5zM12 2.75A9.25 9.25 0 002.75 12h-1.5C1.25 6.063 6.063 1.25 12 1.25v1.5zM2.75 12A9.25 9.25 0 0012 21.25v1.5C6.063 22.75 1.25 17.937 1.25 12h1.5zM12 21.25A9.25 9.25 0 0021.25 12h1.5c0 5.937-4.813 10.75-10.75 10.75v-1.5zM11.25 16v-4h1.5v4h-1.5zM12 7.25h.01v1.5H12v-1.5z" fill="currentColor"/></svg>