<svg width="24" height="24" fill="none" xmlns="http://www.w3.org/2000/svg" viewBox="0 0 24 24"><path d="M4.064 14.158l.409.63-.41-.63zm15.872 0l-.409.63.41-.63zm1.151.955l.692-.29-.692.29zm-.691.484a.75.75 0 101.383.58l-1.383-.58zm-17.483-.484l-.691-.29.691.29zm-.691 1.065a.75.75 0 101.382-.581l-1.382.58zM4.064 9.84l.409-.628-.41.628zm15.872 0l.409.63-.409-.63zm1.151-.954l.692.29-.692-.29zm.692-1.065a.75.75 0 00-1.383.581l1.383-.58zM2.913 8.887l.691-.29-.691.29zm.691-.484a.75.75 0 00-1.382-.58l1.382.58zM11.25 21.5a.75.75 0 101.5 0h-1.5zm1.5-19a.75.75 0 00-1.5 0h1.5zm8.522 13.473l-.409-.629.409.63zm.495-.375l-.575-.48.575.48zm.189-.347l.717.22-.717-.22zm-19.912 0l-.717.22.717-.22zm.684.722l.409-.629-.409.63zm-.495-.375l.575-.48-.575.48zm19.039-7.571l.409-.63-.409.63zm.495.374l-.575.481.575-.48zm.189.348l.717-.22-.717.22zM11.128 21.433l-.409.629.409-.629zm.643.348l.172-.73-.171.73zm1.101-.348l.409.629-.409-.629zm-.643.348l-.172-.73.171.73zM2.728 8.027l.409.629-.409-.63zm-.495.374l.575.481-.575-.48zm-.189.348l-.717-.22.717.22zm9.084-6.182l-.409-.63.409.63zm.643-.348l.172.73-.171-.73zm1.101.348l-.409.629.409-.63zm-.643-.348l-.172.73.171-.73zm-.638 6.152L3.655 13.53l.818 1.257 7.936-5.158-.818-1.258zm8.754 5.159L12.409 8.37 11.59 9.63l7.936 5.158.818-1.257zm-.818 1.257c.357.232.58.378.734.499.153.12.149.151.135.117l1.383-.58c-.134-.319-.37-.541-.59-.715-.22-.174-.512-.363-.844-.578l-.818 1.257zm2.252 1.39a1.75 1.75 0 000-1.355l-1.383.581a.25.25 0 010 .194l1.383.58zM3.655 13.53c-.332.215-.624.404-.844.578-.22.174-.456.396-.59.714l1.383.581c-.014.034-.018.004.135-.117.154-.121.378-.267.734-.499l-.818-1.257zm-1.433 1.292a1.75 1.75 0 000 1.356l1.382-.581a.25.25 0 010-.194l-1.382-.58zm1.433-4.352l7.936 5.159.818-1.258-7.936-5.158-.818 1.257zm8.754 5.159l7.936-5.159-.818-1.257-7.936 5.158.818 1.258zm7.936-5.159c.332-.215.624-.405.844-.578.22-.174.456-.397.59-.714l-1.383-.581c.014-.034.018-.004-.135.117-.154.121-.377.267-.734.499l.818 1.257zm1.434-1.292a1.75 1.75 0 000-1.356l-1.383.581a.25.25 0 010 .194l1.383.58zm-17.306.035a11.19 11.19 0 01-.734-.5c-.153-.12-.149-.15-.135-.116l-1.382.58c.133.318.368.541.589.715.22.174.512.363.844.578l.818-1.257zm-2.251-1.39a1.75 1.75 0 000 1.355l1.382-.581a.25.25 0 010-.194l-1.382-.58zM12.75 21.5V15h-1.5v6.5h1.5zm-1.5-19V9h1.5V2.5h-1.5zm-.53-.562l-8.4 5.46.817 1.258 8.4-5.46-.818-1.258zm10.96 5.46l-8.4-5.46-.817 1.258 8.4 5.46.818-1.258zM1.25 9.368v5.264h1.5V9.368h-1.5zm1.07 7.234l8.4 5.46.817-1.258-8.4-5.46-.818 1.258zm10.96 5.46l8.4-5.46-.817-1.258-8.4 5.46.818 1.258zm9.47-7.43V9.368h-1.5v5.264h1.5zm-1.07 1.97c.227-.147.477-.3.663-.523l-1.151-.961c.004-.006-.002.004-.052.042a6.746 6.746 0 01-.277.184l.818 1.258zm-.43-1.97c0 .167 0 .26-.004.332-.004.063-.009.073-.007.067l1.434.44c.085-.276.077-.57.077-.84h-1.5zm1.093 1.447a1.75 1.75 0 00.33-.607l-1.434-.441a.25.25 0 01-.047.087l1.15.961zM1.25 14.632c0 .27-.008.563.077.84l1.434-.441c.002.006-.003-.004-.007-.067a6.646 6.646 0 01-.004-.332h-1.5zm1.887.712a6.713 6.713 0 01-.277-.184c-.05-.038-.056-.048-.052-.042l-1.15.961c.185.223.435.376.661.523l.818-1.258zm-1.81.128c.069.222.18.429.33.607l1.151-.961a.251.251 0 01-.047-.087l-1.434.44zm19.536-6.816c.14.09.22.142.277.184.05.038.056.048.052.042l1.15-.962c-.185-.222-.435-.375-.661-.522l-.818 1.258zm1.887.712c0-.27.008-.563-.077-.84l-1.434.441c-.002-.006.003.004.007.067.004.071.004.165.004.332h1.5zm-1.558-.486a.25.25 0 01.047.087l1.434-.44a1.75 1.75 0 00-.33-.609l-1.151.962zm-10.473 13.18c.268.174.553.372.881.449l.343-1.46c.009.002-.005.001-.071-.036a7.005 7.005 0 01-.335-.21l-.818 1.257zm1.744-1.258c-.165.108-.26.17-.335.211-.066.037-.08.038-.07.036l.342 1.46c.328-.077.613-.275.88-.449l-.817-1.258zm-.863 1.707c.263.062.537.062.8 0l-.343-1.46a.248.248 0 01-.114 0l-.343 1.46zM2.32 7.398c-.227.147-.477.3-.663.522l1.151.962c-.004.006.002-.004.052-.042.058-.042.137-.094.277-.184l-.818-1.258zm.43 1.97c0-.167 0-.261.004-.332.004-.063.009-.073.007-.067l-1.434-.44c-.085.276-.077.57-.077.84h1.5zM1.657 7.92a1.75 1.75 0 00-.33.608l1.434.441a.25.25 0 01.047-.087l-1.15-.962zm9.88-4.724c.165-.108.26-.17.335-.211.066-.037.08-.038.07-.036L11.6 1.49c-.328.077-.613.275-.88.449l.817 1.258zm1.744-1.258c-.268-.174-.553-.372-.881-.45l-.343 1.461c-.009-.002.005-.001.071.036.075.042.17.103.335.21l.818-1.257zm-1.338 1.011a.25.25 0 01.114 0l.343-1.46a1.75 1.75 0 00-.8 0l.343 1.46z" fill="currentColor"/></svg>