<svg width="24" height="24" fill="none" xmlns="http://www.w3.org/2000/svg" viewBox="0 0 24 24"><path d="M8.59 15.56l6.62-6.07a.57.57 0 00-.02-.89l-2.06-1.72c-.54-.45-.97-.24-.97.46v9.33c0 .7.44.9.97.46l2.06-1.72c.29-.24.3-.64.02-.89L8.59 8.45" stroke="currentColor" stroke-width="1.5" stroke-miterlimit="10" stroke-linecap="round" stroke-linejoin="round"/><path d="M15 22H9c-3 0-5-2-5-5V7c0-3 2-5 5-5h6c3 0 5 2 5 5v10c0 3-2 5-5 5z" stroke="currentColor" stroke-width="1.5" stroke-miterlimit="10" stroke-linecap="round" stroke-linejoin="round"/></svg>