<svg width="24" height="24" fill="none" xmlns="http://www.w3.org/2000/svg" viewBox="0 0 24 24"><path d="M8.5 18.97H8c-4 0-6-1-6-6v-5c0-4 2-6 6-6h8c4 0 6 2 6 6v5c0 4-2 6-6 6h-.5c-.31 0-.61.15-.8.4l-1.5 2c-.66.88-1.74.88-2.4 0l-1.5-2c-.16-.22-.52-.4-.8-.4z" stroke="currentColor" stroke-width="1.5" stroke-miterlimit="10" stroke-linecap="round" stroke-linejoin="round"/><path d="M8 8.7l-2 2 2 2M16 8.7l2 2-2 2M13 8.37l-2 4.66" stroke="currentColor" stroke-width="1.5" stroke-miterlimit="10" stroke-linecap="round" stroke-linejoin="round"/></svg>