<svg width="24" height="24" fill="none" xmlns="http://www.w3.org/2000/svg" viewBox="0 0 24 24"><path opacity=".4" d="M6.5 22v-7M6.5 5V2M17.5 22v-3M17.5 9V2" stroke="currentColor" stroke-width="1.5" stroke-miterlimit="10" stroke-linecap="round" stroke-linejoin="round"/><path d="M9.5 7v6c0 1.1-.5 2-2 2h-2c-1.5 0-2-.9-2-2V7c0-1.1.5-2 2-2h2c1.5 0 2 .9 2 2zM20.5 11v6c0 1.1-.5 2-2 2h-2c-1.5 0-2-.9-2-2v-6c0-1.1.5-2 2-2h2c1.5 0 2 .9 2 2z" stroke="currentColor" stroke-width="1.5" stroke-miterlimit="10" stroke-linecap="round" stroke-linejoin="round"/></svg>