<svg width="24" height="24" fill="none" xmlns="http://www.w3.org/2000/svg" viewBox="0 0 24 24"><path d="M2 22h20M15.01 21.99l-12 .02L3 7.07c0-.67.34-1.29.89-1.66l4-2.67c.67-.45 1.55-.45 2.22 0l4 2.67c.56.37.89.99.89 1.66l.01 14.92z" stroke="currentColor" stroke-width="1.5" stroke-miterlimit="10" stroke-linecap="round" stroke-linejoin="round"/><path opacity=".4" d="M19.98 22.01V18" stroke="currentColor" stroke-width="1.5" stroke-miterlimit="10" stroke-linecap="round" stroke-linejoin="round"/><path d="M20 12c-1.1 0-2 .9-2 2v2c0 1.1.9 2 2 2s2-.9 2-2v-2c0-1.1-.9-2-2-2zM3 14h12" stroke="currentColor" stroke-width="1.5" stroke-miterlimit="10" stroke-linecap="round" stroke-linejoin="round"/><path opacity=".4" d="M9 22v-3.75M9 10.5a1.5 1.5 0 100-3 1.5 1.5 0 000 3z" stroke="currentColor" stroke-width="1.5" stroke-miterlimit="10" stroke-linecap="round" stroke-linejoin="round"/></svg>