<svg width="24" height="24" fill="none" xmlns="http://www.w3.org/2000/svg" viewBox="0 0 24 24"><path d="M15.03 10.77l5.66-3.79c.57-.38.72-1.16.34-1.72l-1.82-2.71c-.38-.57-1.16-.72-1.72-.34L11.83 6l3.2 4.77z" stroke="currentColor" stroke-width="1.5" stroke-linecap="round" stroke-linejoin="round"/><path d="M12.173 6.48l-4.777 3.2 2.56 3.821 4.777-3.2-2.56-3.822zM5.83 15.9l3.95-2.64-2.24-3.34-3.95 2.64c-.46.31-.58.93-.27 1.39l1.13 1.68c.3.45.92.57 1.38.27z" stroke="currentColor" stroke-width="1.5" stroke-linecap="round" stroke-linejoin="round"/><path opacity=".4" d="M12.05 12.2L7.56 22M12 12.2l4.44 9.8" stroke="currentColor" stroke-width="1.5" stroke-linecap="round" stroke-linejoin="round"/></svg>