<svg width="24" height="24" fill="none" xmlns="http://www.w3.org/2000/svg" viewBox="0 0 24 24"><path d="M15.72 9.69a5.25 5.25 0 010 7.44 5.251 5.251 0 01-7.44 0 5.25 5.25 0 010-7.44 5.251 5.251 0 017.44 0z" stroke="currentColor" stroke-width="1.509" stroke-linecap="round" stroke-linejoin="round"/><path opacity=".4" d="M12 13.41L10.41 15" stroke="currentColor" stroke-width="1.509" stroke-linecap="round" stroke-linejoin="round"/><path opacity=".4" d="M19.07 6.34c.15.15.15.4 0 .56-.15.15-.4.15-.56 0-.16-.15-.15-.4 0-.56.15-.16.41-.16.56 0zM5.49 19.92c.15.15.15.4 0 .56-.15.16-.4.15-.56 0a.405.405 0 010-.56c.15-.16.41-.16.56 0zM21.88 13.13c.15.15.15.4 0 .56-.15.15-.4.15-.56 0-.16-.15-.15-.4 0-.56.15-.16.41-.16.56 0zM2.67 13.13c.15.15.15.4 0 .56-.15.16-.4.15-.56 0a.405.405 0 010-.56c.16-.16.41-.16.56 0zM19.07 19.92c.15.15.15.4 0 .56-.15.15-.4.15-.56 0-.16-.15-.15-.4 0-.56.16-.16.41-.16.56 0zM5.49 6.34c.15.15.15.4 0 .56-.15.16-.4.15-.56 0a.405.405 0 010-.56c.15-.16.41-.16.56 0zM12.28 3.52c.15.15.15.4 0 .56-.15.16-.4.15-.56 0-.16-.15-.15-.4 0-.56.15-.16.41-.15.56 0z" stroke="currentColor" stroke-width="1.5" stroke-linecap="round" stroke-linejoin="round"/></svg>