<svg width="24" height="24" fill="none" xmlns="http://www.w3.org/2000/svg" viewBox="0 0 24 24"><path d="M9 22h6c5 0 7-2 7-7V9c0-5-2-7-7-7H9C4 2 2 4 2 9v6c0 5 2 7 7 7z" stroke="currentColor" stroke-width="1.5" stroke-linecap="round" stroke-linejoin="round"/><g opacity=".4" stroke="currentColor" stroke-width="1.5" stroke-linecap="round" stroke-linejoin="round"><path d="M18 7.75v6.75c0-1.1-.9-2-2-2H8c-1.1 0-2 .9-2 2V7.75c0-1.1.9-2 2-2h8c1.1 0 2 .9 2 2zM19 15.75h-1M6 15.75H5"/><path d="M18 14v-3c0-1.1-.9-2-2-2H8c-1.1 0-2 .9-2 2v3"/><path d="M18 14.5v1.25h-3.5a2.5 2.5 0 01-5 0H6V14.5c0-1.1.9-2 2-2h8c1.1 0 2 .9 2 2z"/></g></svg>