<svg width="24" height="24" fill="none" xmlns="http://www.w3.org/2000/svg" viewBox="0 0 24 24"><path d="M22 10V9c0-5-2-7-7-7H9C4 2 2 4 2 9v6c0 5 2 7 7 7h2" stroke="currentColor" stroke-width="1.5" stroke-linecap="round" stroke-linejoin="round"/><g opacity=".4" stroke="currentColor" stroke-width="1.5" stroke-linecap="round" stroke-linejoin="round"><path d="M15.51 22a2 2 0 100-4 2 2 0 000 4zM17.51 20v-6.99M18.82 12.07l2.21.74c.53.18.97.78.97 1.35v.59c0 .76-.59 1.19-1.31.95l-2.21-.74c-.53-.18-.97-.78-.97-1.35v-.59c0-.77.59-1.19 1.31-.95z"/></g></svg>