<svg width="24" height="24" fill="none" xmlns="http://www.w3.org/2000/svg" viewBox="0 0 24 24"><path d="M22 11V9c0-5-2-7-7-7H9C4 2 2 4 2 9v6c0 5 2 7 7 7h1" stroke="currentColor" stroke-width="1.5" stroke-linecap="round" stroke-linejoin="round"/><g opacity=".4" stroke="currentColor" stroke-width="1.5" stroke-linecap="round" stroke-linejoin="round"><path d="M2.03 8.5H22M2.03 15.5H12M8.51 21.99V2.01M15.51 11.99V2.01"/></g><path d="M18.8 19.7l-1.9 1.9c-.52.52-1.38.52-1.91 0l-1.58-1.59c-.52-.52-.52-1.38 0-1.91l1.9-1.89 3.49 3.49z" stroke="currentColor" stroke-width="1.5" stroke-linecap="round" stroke-linejoin="round"/><path d="M21.61 16.9l-2.81 2.81-3.5-3.5 2.81-2.82c.52-.52 1.39-.52 1.91 0l1.58 1.59c.53.53.53 1.4.01 1.92z" stroke="currentColor" stroke-width="1.5" stroke-linecap="round" stroke-linejoin="round"/></svg>