<svg width="24" height="24" fill="none" xmlns="http://www.w3.org/2000/svg" viewBox="0 0 24 24"><path d="M15.5 12a3.5 3.5 0 01-3.5 3.5 3.5 3.5 0 010-7 3.5 3.5 0 013.5 3.5z" stroke="currentColor" stroke-width="1.5" stroke-linecap="round" stroke-linejoin="round"/><g opacity=".4" stroke="currentColor" stroke-width="1.5" stroke-linecap="round" stroke-linejoin="round"><path d="M12 8.5V3M12 21v-5.5M10 3h4M10 21h4M8.97 10.25L4.21 7.5M19.791 16.5l-4.76-2.75M3.21 9.23l2-3.46M18.791 18.23l2-3.46M19.791 7.5l-4.76 2.75M8.97 13.75L4.21 16.5M20.791 9.23l-2-3.46M5.21 18.23l-2-3.46"/></g></svg>