<svg width="24" height="24" fill="none" xmlns="http://www.w3.org/2000/svg" viewBox="0 0 24 24"><path d="M22 10v3c0 4-2 6-6 6h-.5c-.31 0-.61.15-.8.4l-1.5 2c-.66.88-1.74.88-2.4 0l-1.5-2c-.16-.22-.53-.4-.8-.4H8c-4 0-6-1-6-6V8c0-4 2-6 6-6h6" stroke="currentColor" stroke-width="1.5" stroke-miterlimit="10" stroke-linecap="round" stroke-linejoin="round"/><path opacity=".4" d="M19.5 7a2.5 2.5 0 100-5 2.5 2.5 0 000 5z" stroke="currentColor" stroke-width="1.5" stroke-linecap="round" stroke-linejoin="round"/><path opacity=".4" d="M15.996 11h.01M11.995 11h.009M7.995 11h.008" stroke="currentColor" stroke-width="2" stroke-linecap="round" stroke-linejoin="round"/></svg>