<svg width="24" height="24" fill="none" xmlns="http://www.w3.org/2000/svg" viewBox="0 0 24 24"><path d="M21.93 6.76l-3.37 13.53A2.228 2.228 0 0116.38 22H3.24c-1.51 0-2.59-1.48-2.14-2.93L5.31 5.55a2.25 2.25 0 012.14-1.59h12.3c.95 0 1.74.58 2.07 1.38.19.43.23.92.11 1.42z" stroke="currentColor" stroke-width="1.5" stroke-miterlimit="10"/><path opacity=".4" d="M16 22h4.78c1.29 0 2.3-1.09 2.21-2.38L22 6" stroke="currentColor" stroke-width="1.5" stroke-miterlimit="10" stroke-linecap="round" stroke-linejoin="round"/><path d="M9.68 6.38l1.04-4.32M16.38 6.39l.94-4.34" stroke="currentColor" stroke-width="1.5" stroke-miterlimit="10" stroke-linecap="round" stroke-linejoin="round"/><path opacity=".4" d="M7.7 12h8M6.7 16h8" stroke="currentColor" stroke-width="1.5" stroke-miterlimit="10" stroke-linecap="round" stroke-linejoin="round"/></svg>