<svg width="24" height="24" viewBox="0 0 24 24" fill="none" xmlns="http://www.w3.org/2000/svg">
<path d="M20.5303 6.53033C20.8232 6.23744 20.8232 5.76256 20.5303 5.46967C20.2374 5.17678 19.7626 5.17678 19.4697 5.46967L20.5303 6.53033ZM9 17L8.46967 17.5303C8.76256 17.8232 9.23744 17.8232 9.53033 17.5303L9 17ZM4.53033 11.4697C4.23744 11.1768 3.76256 11.1768 3.46967 11.4697C3.17678 11.7626 3.17678 12.2374 3.46967 12.5303L4.53033 11.4697ZM19.4697 5.46967L8.46967 16.4697L9.53033 17.5303L20.5303 6.53033L19.4697 5.46967ZM9.53033 16.4697L4.53033 11.4697L3.46967 12.5303L8.46967 17.5303L9.53033 16.4697Z" fill="#70728F"/>
</svg>
