<svg width="24" height="24" viewBox="0 0 24 24" fill="none" xmlns="http://www.w3.org/2000/svg">
<path d="M17.4697 15.5303C17.7626 15.8232 18.2374 15.8232 18.5303 15.5303C18.8232 15.2374 18.8232 14.7626 18.5303 14.4697L17.4697 15.5303ZM12 9L12.5303 8.46967C12.2374 8.17678 11.7626 8.17678 11.4697 8.46967L12 9ZM5.46967 14.4697C5.17678 14.7626 5.17678 15.2374 5.46967 15.5303C5.76256 15.8232 6.23744 15.8232 6.53033 15.5303L5.46967 14.4697ZM18.5303 14.4697L12.5303 8.46967L11.4697 9.53033L17.4697 15.5303L18.5303 14.4697ZM11.4697 8.46967L5.46967 14.4697L6.53033 15.5303L12.5303 9.53033L11.4697 8.46967Z" fill="#70728F"/>
</svg>
