<svg width="24" height="24" viewBox="0 0 24 24" fill="none" xmlns="http://www.w3.org/2000/svg">
<path d="M15.5303 6.53033C15.8232 6.23744 15.8232 5.76256 15.5303 5.46967C15.2374 5.17678 14.7626 5.17678 14.4697 5.46967L15.5303 6.53033ZM9 12L8.46967 11.4697C8.17678 11.7626 8.17678 12.2374 8.46967 12.5303L9 12ZM14.4697 18.5303C14.7626 18.8232 15.2374 18.8232 15.5303 18.5303C15.8232 18.2374 15.8232 17.7626 15.5303 17.4697L14.4697 18.5303ZM14.4697 5.46967L8.46967 11.4697L9.53033 12.5303L15.5303 6.53033L14.4697 5.46967ZM8.46967 12.5303L14.4697 18.5303L15.5303 17.4697L9.53033 11.4697L8.46967 12.5303Z" fill="#70728F"/>
</svg>
