<svg width="24" height="24" viewBox="0 0 24 24" fill="none" xmlns="http://www.w3.org/2000/svg">
<path d="M8.46967 17.4697C8.17678 17.7626 8.17678 18.2374 8.46967 18.5303C8.76256 18.8232 9.23744 18.8232 9.53033 18.5303L8.46967 17.4697ZM15 12L15.5303 12.5303C15.8232 12.2374 15.8232 11.7626 15.5303 11.4697L15 12ZM9.53033 5.46967C9.23744 5.17678 8.76256 5.17678 8.46967 5.46967C8.17678 5.76256 8.17678 6.23744 8.46967 6.53033L9.53033 5.46967ZM9.53033 18.5303L15.5303 12.5303L14.4697 11.4697L8.46967 17.4697L9.53033 18.5303ZM15.5303 11.4697L9.53033 5.46967L8.46967 6.53033L14.4697 12.5303L15.5303 11.4697Z" fill="#70728F"/>
</svg>
