<svg width="24" height="24" viewBox="0 0 24 24" fill="none" xmlns="http://www.w3.org/2000/svg">
<path d="M4.06386 14.1584L4.4726 14.7873L4.06386 14.1584ZM19.9361 14.1584L19.5274 14.7873L19.9361 14.1584ZM21.087 15.1126L21.7785 14.8221L21.7785 14.8221L21.087 15.1126ZM20.3956 15.5968C20.2351 15.9787 20.4146 16.4183 20.7965 16.5787C21.1784 16.7392 21.618 16.5597 21.7785 16.1778L20.3956 15.5968ZM2.91297 15.1126L2.22153 14.8221H2.22153L2.91297 15.1126ZM2.22153 16.1778C2.38198 16.5597 2.82162 16.7392 3.2035 16.5787C3.58537 16.4183 3.76487 15.9787 3.60442 15.5968L2.22153 16.1778ZM4.06386 9.84145L4.4726 9.21262L4.06386 9.84145ZM19.9361 9.84145L20.3449 10.4703L19.9361 9.84145ZM21.087 8.8873L21.7785 9.17783L21.7785 9.17782L21.087 8.8873ZM21.7785 7.82206C21.618 7.44018 21.1784 7.26068 20.7965 7.42113C20.4146 7.58158 20.2351 8.02122 20.3956 8.4031L21.7785 7.82206ZM2.91297 8.8873L3.60442 8.59678L2.91297 8.8873ZM3.60442 8.4031C3.76487 8.02123 3.58537 7.58158 3.2035 7.42113C2.82162 7.26068 2.38198 7.44018 2.22153 7.82206L3.60442 8.4031ZM11.25 21.4999C11.25 21.9142 11.5858 22.2499 12 22.2499C12.4142 22.2499 12.75 21.9142 12.75 21.4999H11.25ZM12.75 2.49994C12.75 2.08573 12.4142 1.74994 12 1.74994C11.5858 1.74994 11.25 2.08573 11.25 2.49994H12.75ZM21.272 15.9732L20.8632 15.3443L21.272 15.9732ZM21.7674 15.5985L21.1918 15.1176L21.7674 15.5985ZM21.9558 15.2512L22.6727 15.4716L21.9558 15.2512ZM2.04417 15.2512L1.3273 15.4716L2.04417 15.2512ZM2.72802 15.9732L3.13676 15.3443L2.72802 15.9732ZM2.23265 15.5985L2.80816 15.1176L2.23265 15.5985ZM21.272 8.02673L21.6807 7.3979L21.272 8.02673ZM21.7674 8.4014L21.1918 8.88232L21.7674 8.4014ZM21.9558 8.74871L22.6727 8.52826L21.9558 8.74871ZM11.128 21.4332L10.7193 22.062L11.128 21.4332ZM11.7715 21.7808L11.9429 21.0506L11.7715 21.7808ZM12.872 21.4332L13.2807 22.062L12.872 21.4332ZM12.2285 21.7808L12.0571 21.0506L12.2285 21.7808ZM2.72802 8.02673L3.13676 8.65556L2.72802 8.02673ZM2.23265 8.4014L2.80816 8.88232L2.23265 8.4014ZM2.04417 8.74871L1.3273 8.52826L2.04417 8.74871ZM11.128 2.56673L10.7193 1.9379V1.9379L11.128 2.56673ZM11.7715 2.21909L11.9429 2.94924L11.7715 2.21909ZM12.872 2.56673L12.4632 3.19556L12.872 2.56673ZM12.2285 2.21909L12.0571 2.94924L12.2285 2.21909ZM11.5913 8.37111L3.65512 13.5296L4.4726 14.7873L12.4087 9.62877L11.5913 8.37111ZM20.3449 13.5296L12.4087 8.37111L11.5913 9.62877L19.5274 14.7873L20.3449 13.5296ZM19.5274 14.7873C19.8835 15.0187 20.1071 15.1649 20.2607 15.286C20.4138 15.4066 20.4099 15.4372 20.3956 15.4031L21.7785 14.8221C21.645 14.5045 21.4096 14.2816 21.189 14.1077C20.969 13.9344 20.6767 13.7453 20.3449 13.5296L19.5274 14.7873ZM21.7785 16.1778C21.9606 15.7443 21.9606 15.2556 21.7785 14.8221L20.3956 15.4031C20.4216 15.465 20.4216 15.5348 20.3956 15.5968L21.7785 16.1778ZM3.65512 13.5296C3.32334 13.7453 3.03105 13.9344 2.811 14.1077C2.59037 14.2816 2.35497 14.5045 2.22153 14.8221L3.60442 15.4031C3.59009 15.4372 3.58622 15.4066 3.73929 15.286C3.89294 15.1649 4.11653 15.0187 4.4726 14.7873L3.65512 13.5296ZM2.22153 14.8221C2.03936 15.2556 2.03936 15.7443 2.22153 16.1778L3.60442 15.5968C3.5784 15.5348 3.5784 15.465 3.60442 15.4031L2.22153 14.8221ZM3.65512 10.4703L11.5913 15.6288L12.4087 14.3711L4.4726 9.21262L3.65512 10.4703ZM12.4087 15.6288L20.3449 10.4703L19.5274 9.21262L11.5913 14.3711L12.4087 15.6288ZM20.3449 10.4703C20.6767 10.2546 20.969 10.0655 21.189 9.89215C21.4096 9.71832 21.645 9.49543 21.7785 9.17783L20.3956 8.59678C20.4099 8.56267 20.4138 8.5933 20.2607 8.7139C20.1071 8.83496 19.8835 8.98117 19.5274 9.21262L20.3449 10.4703ZM21.7785 9.17782C21.9606 8.74426 21.9606 8.25562 21.7785 7.82206L20.3956 8.4031C20.4216 8.46504 20.4216 8.53484 20.3956 8.59678L21.7785 9.17782ZM4.4726 9.21262C4.11653 8.98117 3.89294 8.83496 3.73929 8.7139C3.58622 8.5933 3.59009 8.56268 3.60442 8.59678L2.22153 9.17782C2.35497 9.49543 2.59037 9.71832 2.811 9.89215C3.03105 10.0655 3.32334 10.2546 3.65512 10.4703L4.4726 9.21262ZM2.22153 7.82206C2.03936 8.25562 2.03936 8.74426 2.22153 9.17782L3.60442 8.59678C3.5784 8.53484 3.5784 8.46504 3.60442 8.4031L2.22153 7.82206ZM12.75 21.4999V14.9999H11.25V21.4999H12.75ZM11.25 2.49994V8.99994H12.75V2.49994H11.25ZM10.7193 1.9379L2.31928 7.3979L3.13676 8.65556L11.5368 3.19556L10.7193 1.9379ZM21.6807 7.3979L13.2807 1.9379L12.4632 3.19556L20.8632 8.65556L21.6807 7.3979ZM1.25 9.36824V14.6316H2.75V9.36824H1.25ZM2.31928 16.602L10.7193 22.062L11.5368 20.8043L3.13676 15.3443L2.31928 16.602ZM13.2807 22.062L21.6807 16.602L20.8632 15.3443L12.4632 20.8043L13.2807 22.062ZM22.75 14.6316V9.36824H21.25V14.6316H22.75ZM21.6807 16.602C21.907 16.4549 22.1572 16.3016 22.3429 16.0794L21.1918 15.1176C21.1962 15.1124 21.1903 15.1223 21.1396 15.1596C21.0821 15.2017 21.0031 15.2534 20.8632 15.3443L21.6807 16.602ZM21.25 14.6316C21.25 14.7985 21.2497 14.8929 21.2457 14.964C21.2421 15.0269 21.237 15.0372 21.239 15.0307L22.6727 15.4716C22.7578 15.1948 22.75 14.9015 22.75 14.6316H21.25ZM22.3429 16.0794C22.4921 15.9008 22.6043 15.6941 22.6727 15.4716L21.239 15.0307C21.2292 15.0625 21.2132 15.092 21.1918 15.1176L22.3429 16.0794ZM1.25 14.6316C1.25 14.9015 1.24217 15.1948 1.3273 15.4716L2.76104 15.0307C2.76303 15.0372 2.75789 15.0269 2.75432 14.964C2.75028 14.8929 2.75 14.7985 2.75 14.6316H1.25ZM3.13676 15.3443C2.99688 15.2534 2.9179 15.2017 2.86044 15.1596C2.80966 15.1223 2.80382 15.1124 2.80816 15.1176L1.65713 16.0794C1.84285 16.3016 2.09301 16.4549 2.31928 16.602L3.13676 15.3443ZM1.3273 15.4716C1.39572 15.6941 1.50786 15.9008 1.65713 16.0794L2.80816 15.1176C2.78684 15.092 2.77082 15.0625 2.76104 15.0307L1.3273 15.4716ZM20.8632 8.65556C21.0031 8.74648 21.0821 8.79815 21.1396 8.84032C21.1903 8.87758 21.1962 8.88752 21.1918 8.88232L22.3429 7.92048C22.1572 7.69824 21.907 7.54497 21.6807 7.3979L20.8632 8.65556ZM22.75 9.36824C22.75 9.09837 22.7578 8.8051 22.6727 8.52826L21.239 8.96915C21.237 8.96267 21.2421 8.97298 21.2457 9.03587C21.2497 9.10703 21.25 9.20141 21.25 9.36824H22.75ZM21.1918 8.88232C21.2132 8.90784 21.2292 8.93736 21.239 8.96915L22.6727 8.52826C22.6043 8.30575 22.4921 8.09912 22.3429 7.92048L21.1918 8.88232ZM10.7193 22.062C10.9868 22.2359 11.272 22.4339 11.6001 22.511L11.9429 21.0506C11.9516 21.0527 11.9381 21.0524 11.8717 21.0151C11.7975 20.9734 11.7025 20.912 11.5368 20.8043L10.7193 22.062ZM12.4632 20.8043C12.2975 20.912 12.2025 20.9734 12.1283 21.0151C12.0619 21.0524 12.0484 21.0527 12.0571 21.0506L12.3999 22.511C12.728 22.4339 13.0132 22.2359 13.2807 22.062L12.4632 20.8043ZM11.6001 22.511C11.8631 22.5727 12.1369 22.5727 12.3999 22.511L12.0571 21.0506C12.0196 21.0595 11.9804 21.0595 11.9429 21.0506L11.6001 22.511ZM2.31928 7.3979C2.09301 7.54497 1.84285 7.69824 1.65713 7.92048L2.80816 8.88232C2.80382 8.88752 2.80966 8.87758 2.86044 8.84032C2.9179 8.79815 2.99688 8.74648 3.13676 8.65556L2.31928 7.3979ZM2.75 9.36824C2.75 9.20141 2.75028 9.10703 2.75432 9.03587C2.75789 8.97298 2.76303 8.96267 2.76104 8.96915L1.3273 8.52826C1.24217 8.8051 1.25 9.09837 1.25 9.36824H2.75ZM1.65713 7.92048C1.50786 8.09912 1.39572 8.30575 1.3273 8.52826L2.76104 8.96915C2.77082 8.93736 2.78684 8.90784 2.80816 8.88232L1.65713 7.92048ZM11.5368 3.19556C11.7025 3.08785 11.7975 3.0265 11.8717 2.9848C11.9381 2.94753 11.9516 2.94719 11.9429 2.94924L11.6001 1.48893C11.272 1.56595 10.9868 1.764 10.7193 1.9379L11.5368 3.19556ZM13.2807 1.9379C13.0132 1.764 12.728 1.56595 12.3999 1.48893L12.0571 2.94924C12.0484 2.94719 12.0619 2.94753 12.1283 2.9848C12.2025 3.0265 12.2975 3.08785 12.4632 3.19556L13.2807 1.9379ZM11.9429 2.94924C11.9804 2.94042 12.0196 2.94042 12.0571 2.94924L12.3999 1.48893C12.1369 1.42719 11.8631 1.42719 11.6001 1.48893L11.9429 2.94924Z" fill="#70728F"/>
</svg>
