<svg width="24" height="24" viewBox="0 0 24 24" fill="none" xmlns="http://www.w3.org/2000/svg">
<path d="M8.3825 8.75112C8.24505 9.14186 8.45038 9.57005 8.84112 9.7075C9.23186 9.84495 9.66005 9.63962 9.7975 9.24888L8.3825 8.75112ZM14.92 10L14.17 9.99888V10H14.92ZM11.6828 12.2885C11.2899 12.4195 11.0775 12.8442 11.2085 13.2372C11.3395 13.6301 11.7642 13.8425 12.1572 13.7115L11.6828 12.2885ZM12 16.25C11.5858 16.25 11.25 16.5858 11.25 17C11.25 17.4142 11.5858 17.75 12 17.75V16.25ZM12.01 17.75C12.4242 17.75 12.76 17.4142 12.76 17C12.76 16.5858 12.4242 16.25 12.01 16.25V17.75ZM21.25 12C21.25 17.1086 17.1086 21.25 12 21.25V22.75C17.9371 22.75 22.75 17.9371 22.75 12H21.25ZM12 21.25C6.89137 21.25 2.75 17.1086 2.75 12H1.25C1.25 17.9371 6.06294 22.75 12 22.75V21.25ZM2.75 12C2.75 6.89137 6.89137 2.75 12 2.75V1.25C6.06294 1.25 1.25 6.06294 1.25 12H2.75ZM12 2.75C17.1086 2.75 21.25 6.89137 21.25 12H22.75C22.75 6.06294 17.9371 1.25 12 1.25V2.75ZM9.7975 9.24888C9.97383 8.74763 10.3219 8.32496 10.78 8.05573L10.0199 6.76253C9.25644 7.21125 8.67638 7.9157 8.3825 8.75112L9.7975 9.24888ZM10.78 8.05573C11.2381 7.7865 11.7767 7.68809 12.3004 7.77792L12.554 6.29951C11.6811 6.14979 10.7834 6.31382 10.0199 6.76253L10.78 8.05573ZM12.3004 7.77792C12.8241 7.86775 13.2991 8.14003 13.6413 8.54653L14.7888 7.58053C14.2185 6.90302 13.4268 6.44922 12.554 6.29951L12.3004 7.77792ZM13.6413 8.54653C13.9835 8.95303 14.1708 9.46752 14.17 9.99888L15.67 10.0011C15.6713 9.11552 15.3592 8.25803 14.7888 7.58053L13.6413 8.54653ZM14.17 10C14.17 10.6019 13.7087 11.1562 13.004 11.626C12.6744 11.8456 12.3396 12.0136 12.0841 12.1271C11.9575 12.1834 11.853 12.2252 11.7819 12.2523C11.7464 12.2658 11.7195 12.2756 11.7024 12.2816C11.6939 12.2846 11.6879 12.2867 11.6846 12.2879C11.6829 12.2885 11.6819 12.2888 11.6816 12.2889C11.6815 12.2889 11.6815 12.2889 11.6817 12.2889C11.6818 12.2888 11.6819 12.2888 11.6821 12.2887C11.6822 12.2887 11.6824 12.2886 11.6824 12.2886C11.6826 12.2886 11.6828 12.2885 11.92 13C12.1572 13.7115 12.1574 13.7114 12.1576 13.7114C12.1577 13.7113 12.158 13.7112 12.1581 13.7112C12.1585 13.7111 12.1589 13.7109 12.1594 13.7108C12.1603 13.7105 12.1614 13.7101 12.1627 13.7096C12.1653 13.7088 12.1686 13.7076 12.1726 13.7063C12.1806 13.7035 12.1915 13.6997 12.2049 13.6949C12.2319 13.6854 12.2694 13.6717 12.3159 13.654C12.4089 13.6186 12.5388 13.5666 12.6934 13.4979C13.0004 13.3614 13.4156 13.1544 13.836 12.874C14.6313 12.3438 15.67 11.3981 15.67 10H14.17ZM12 17.75H12.01V16.25H12V17.75Z" fill="#70728F"/>
</svg>
