<svg width="24" height="24" viewBox="0 0 24 24" fill="none" xmlns="http://www.w3.org/2000/svg">
<path d="M12.75 16C12.75 16.4142 12.4142 16.75 12 16.75C11.5858 16.75 11.25 16.4142 11.25 16H12.75ZM11.25 12C11.25 11.5858 11.5858 11.25 12 11.25C12.4142 11.25 12.75 11.5858 12.75 12H11.25ZM12 8.75C11.5858 8.75 11.25 8.41421 11.25 8C11.25 7.58579 11.5858 7.25 12 7.25V8.75ZM12.01 7.25C12.4242 7.25 12.76 7.58579 12.76 8C12.76 8.41421 12.4242 8.75 12.01 8.75V7.25ZM21.25 12C21.25 6.89137 17.1086 2.75 12 2.75V1.25C17.9371 1.25 22.75 6.06294 22.75 12H21.25ZM12 2.75C6.89137 2.75 2.75 6.89137 2.75 12H1.25C1.25 6.06294 6.06294 1.25 12 1.25V2.75ZM2.75 12C2.75 17.1086 6.89137 21.25 12 21.25V22.75C6.06294 22.75 1.25 17.9371 1.25 12H2.75ZM12 21.25C17.1086 21.25 21.25 17.1086 21.25 12H22.75C22.75 17.9371 17.9371 22.75 12 22.75V21.25ZM11.25 16V12H12.75V16H11.25ZM12 7.25H12.01V8.75H12V7.25Z" fill="#70728F"/>
</svg>
