<svg width="24" height="24" viewBox="0 0 24 24" fill="none" xmlns="http://www.w3.org/2000/svg">
<path d="M2.33541 13.8292C1.96493 13.644 1.51442 13.7942 1.32918 14.1647C1.14394 14.5351 1.29411 14.9856 1.66459 15.1709L2.33541 13.8292ZM22.3354 15.1709C22.7059 14.9856 22.8561 14.5351 22.6708 14.1647C22.4856 13.7942 22.0351 13.644 21.6646 13.8292L22.3354 15.1709ZM11.9078 19.4325L11.7695 20.1696L11.9078 19.4325ZM12.0922 19.4325L12.2305 20.1696L12.0922 19.4325ZM2 9.50006L1.66459 8.82924C1.4105 8.95629 1.25 9.21599 1.25 9.50006C1.25 9.78414 1.4105 10.0438 1.66459 10.1709L2 9.50006ZM22 9.50006L22.3354 10.1709C22.5895 10.0438 22.75 9.78414 22.75 9.50006C22.75 9.21599 22.5895 8.95629 22.3354 8.82924L22 9.50006ZM11.9078 14.4325L11.7695 15.1696L11.9078 14.4325ZM12.0922 14.4325L12.2305 15.1696L12.0922 14.4325ZM11.6422 4.67895L11.9776 5.34977L11.6422 4.67895ZM11.9078 4.56766L11.7695 3.83052L11.9078 4.56766ZM12.3578 4.67895L12.0224 5.34977L12.3578 4.67895ZM12.0922 4.56766L12.2305 3.83052L12.0922 4.56766ZM1.66459 15.1709L11.3068 19.992L11.9776 18.6504L2.33541 13.8292L1.66459 15.1709ZM12.6932 19.992L22.3354 15.1709L21.6646 13.8292L12.0224 18.6504L12.6932 19.992ZM11.3068 19.992C11.3991 20.0381 11.5733 20.1328 11.7695 20.1696L12.0461 18.6953C12.0864 18.7029 12.1093 18.7139 12.0976 18.7089C12.0909 18.7059 12.079 18.7005 12.0577 18.6901C12.0363 18.6797 12.0114 18.6673 11.9776 18.6504L11.3068 19.992ZM12.0224 18.6504C11.9886 18.6673 11.9637 18.6797 11.9423 18.6901C11.921 18.7005 11.9091 18.7059 11.9024 18.7089C11.8907 18.7139 11.9136 18.7029 11.9539 18.6953L12.2305 20.1696C12.4267 20.1328 12.6009 20.0381 12.6932 19.992L12.0224 18.6504ZM11.7695 20.1696C11.9218 20.1982 12.0782 20.1982 12.2305 20.1696L11.9539 18.6953C11.9844 18.6896 12.0156 18.6896 12.0461 18.6953L11.7695 20.1696ZM11.3068 4.00813L1.66459 8.82924L2.33541 10.1709L11.9776 5.34977L11.3068 4.00813ZM1.66459 10.1709L11.3068 14.992L11.9776 13.6504L2.33541 8.82924L1.66459 10.1709ZM12.6932 14.992L22.3354 10.1709L21.6646 8.82924L12.0224 13.6504L12.6932 14.992ZM22.3354 8.82924L12.6932 4.00813L12.0224 5.34977L21.6646 10.1709L22.3354 8.82924ZM11.3068 14.992C11.3991 15.0381 11.5733 15.1328 11.7695 15.1696L12.0461 13.6953C12.0864 13.7029 12.1093 13.7139 12.0976 13.7089C12.0909 13.7059 12.079 13.7005 12.0577 13.6901C12.0363 13.6797 12.0114 13.6673 11.9776 13.6504L11.3068 14.992ZM12.0224 13.6504C11.9886 13.6673 11.9637 13.6797 11.9423 13.6901C11.921 13.7005 11.9091 13.7059 11.9024 13.7089C11.8907 13.7139 11.9136 13.7029 11.9539 13.6953L12.2305 15.1696C12.4267 15.1328 12.6009 15.0381 12.6932 14.992L12.0224 13.6504ZM11.7695 15.1696C11.9218 15.1982 12.0782 15.1982 12.2305 15.1696L11.9539 13.6953C11.9844 13.6896 12.0156 13.6896 12.0461 13.6953L11.7695 15.1696ZM11.9776 5.34977C12.0114 5.33287 12.0363 5.32044 12.0577 5.31002C12.079 5.29966 12.0909 5.2942 12.0976 5.29127C12.1093 5.2862 12.0864 5.29724 12.0461 5.30479L11.7695 3.83052C11.5733 3.86734 11.3991 3.96198 11.3068 4.00813L11.9776 5.34977ZM12.6932 4.00813C12.6009 3.96198 12.4267 3.86734 12.2305 3.83052L11.9539 5.30479C11.9136 5.29724 11.8907 5.2862 11.9024 5.29127C11.9091 5.2942 11.921 5.29966 11.9423 5.31002C11.9637 5.32044 11.9886 5.33287 12.0224 5.34977L12.6932 4.00813ZM12.0461 5.30479C12.0156 5.31051 11.9844 5.31051 11.9539 5.30479L12.2305 3.83052C12.0782 3.80194 11.9218 3.80194 11.7695 3.83052L12.0461 5.30479Z" fill="#70728F"/>
</svg>
