<svg width="24" height="24" viewBox="0 0 24 24" fill="none" xmlns="http://www.w3.org/2000/svg">
<path d="M2.33541 11.3292C1.96493 11.144 1.51442 11.2942 1.32918 11.6647C1.14394 12.0351 1.29411 12.4856 1.66459 12.6709L2.33541 11.3292ZM22.3354 12.6709C22.7059 12.4856 22.8561 12.0351 22.6708 11.6647C22.4856 11.2942 22.0351 11.144 21.6646 11.3292L22.3354 12.6709ZM11.9078 16.9325L11.7695 17.6696L11.9078 16.9325ZM12.0922 16.9325L12.2305 17.6696L12.0922 16.9325ZM2.33541 16.3292C1.96493 16.144 1.51442 16.2942 1.32918 16.6647C1.14394 17.0351 1.29411 17.4856 1.66459 17.6709L2.33541 16.3292ZM22.3354 17.6709C22.7059 17.4856 22.8561 17.0351 22.6708 16.6647C22.4856 16.2942 22.0351 16.144 21.6646 16.3292L22.3354 17.6709ZM11.6422 21.8212L11.3068 22.492L11.6422 21.8212ZM11.9078 21.9325L11.7695 22.6696L11.9078 21.9325ZM12.3578 21.8212L12.6932 22.492L12.3578 21.8212ZM12.0922 21.9325L12.2305 22.6696L12.0922 21.9325ZM2 7.00006L1.66459 6.32924C1.4105 6.45629 1.25 6.71599 1.25 7.00006C1.25 7.28414 1.4105 7.54384 1.66459 7.67089L2 7.00006ZM22 7.00006L22.3354 7.67089C22.5895 7.54384 22.75 7.28414 22.75 7.00006C22.75 6.71599 22.5895 6.45629 22.3354 6.32924L22 7.00006ZM11.9078 11.9325L11.7695 12.6696L11.9078 11.9325ZM12.0922 11.9325L12.2305 12.6696L12.0922 11.9325ZM11.6422 2.17895L11.9776 2.84977L11.6422 2.17895ZM11.9078 2.06766L11.7695 1.33052L11.9078 2.06766ZM12.3578 2.17895L12.0224 2.84977L12.3578 2.17895ZM12.0922 2.06766L12.2305 1.33052L12.0922 2.06766ZM1.66459 12.6709L11.3068 17.492L11.9776 16.1504L2.33541 11.3292L1.66459 12.6709ZM12.6932 17.492L22.3354 12.6709L21.6646 11.3292L12.0224 16.1504L12.6932 17.492ZM11.3068 17.492C11.3991 17.5381 11.5733 17.6328 11.7695 17.6696L12.0461 16.1953C12.0864 16.2029 12.1093 16.2139 12.0976 16.2089C12.0909 16.2059 12.079 16.2005 12.0577 16.1901C12.0363 16.1797 12.0114 16.1673 11.9776 16.1504L11.3068 17.492ZM12.0224 16.1504C11.9886 16.1673 11.9637 16.1797 11.9423 16.1901C11.921 16.2005 11.9091 16.2059 11.9024 16.2089C11.8907 16.2139 11.9136 16.2029 11.9539 16.1953L12.2305 17.6696C12.4267 17.6328 12.6009 17.5381 12.6932 17.492L12.0224 16.1504ZM11.7695 17.6696C11.9218 17.6982 12.0782 17.6982 12.2305 17.6696L11.9539 16.1953C11.9844 16.1896 12.0156 16.1896 12.0461 16.1953L11.7695 17.6696ZM1.66459 17.6709L11.3068 22.492L11.9776 21.1504L2.33541 16.3292L1.66459 17.6709ZM12.6932 22.492L22.3354 17.6709L21.6646 16.3292L12.0224 21.1504L12.6932 22.492ZM11.3068 22.492C11.3991 22.5382 11.5733 22.6328 11.7695 22.6696L12.0461 21.1953C12.0864 21.2029 12.1093 21.2139 12.0976 21.2089C12.0909 21.2059 12.079 21.2005 12.0577 21.1901C12.0363 21.1797 12.0114 21.1673 11.9776 21.1504L11.3068 22.492ZM12.0224 21.1504C11.9886 21.1673 11.9637 21.1797 11.9423 21.1901C11.921 21.2005 11.9091 21.2059 11.9024 21.2089C11.8907 21.2139 11.9136 21.2029 11.9539 21.1953L12.2305 22.6696C12.4267 22.6328 12.6009 22.5382 12.6932 22.492L12.0224 21.1504ZM11.7695 22.6696C11.9218 22.6982 12.0782 22.6982 12.2305 22.6696L11.9539 21.1953C11.9844 21.1896 12.0156 21.1896 12.0461 21.1953L11.7695 22.6696ZM11.3068 1.50813L1.66459 6.32924L2.33541 7.67089L11.9776 2.84977L11.3068 1.50813ZM1.66459 7.67089L11.3068 12.492L11.9776 11.1504L2.33541 6.32924L1.66459 7.67089ZM12.6932 12.492L22.3354 7.67089L21.6646 6.32924L12.0224 11.1504L12.6932 12.492ZM22.3354 6.32924L12.6932 1.50813L12.0224 2.84977L21.6646 7.67089L22.3354 6.32924ZM11.3068 12.492C11.3991 12.5381 11.5733 12.6328 11.7695 12.6696L12.0461 11.1953C12.0864 11.2029 12.1093 11.2139 12.0976 11.2089C12.0909 11.2059 12.079 11.2005 12.0577 11.1901C12.0363 11.1797 12.0114 11.1673 11.9776 11.1504L11.3068 12.492ZM12.0224 11.1504C11.9886 11.1673 11.9637 11.1797 11.9423 11.1901C11.921 11.2005 11.9091 11.2059 11.9024 11.2089C11.8907 11.2139 11.9136 11.2029 11.9539 11.1953L12.2305 12.6696C12.4267 12.6328 12.6009 12.5381 12.6932 12.492L12.0224 11.1504ZM11.7695 12.6696C11.9218 12.6982 12.0782 12.6982 12.2305 12.6696L11.9539 11.1953C11.9844 11.1896 12.0156 11.1896 12.0461 11.1953L11.7695 12.6696ZM11.9776 2.84977C12.0114 2.83287 12.0363 2.82044 12.0577 2.81002C12.079 2.79966 12.0909 2.7942 12.0976 2.79127C12.1093 2.7862 12.0864 2.79724 12.0461 2.80479L11.7695 1.33052C11.5733 1.36734 11.3991 1.46198 11.3068 1.50813L11.9776 2.84977ZM12.6932 1.50813C12.6009 1.46198 12.4267 1.36734 12.2305 1.33052L11.9539 2.80479C11.9136 2.79724 11.8907 2.7862 11.9024 2.79127C11.9091 2.7942 11.921 2.79966 11.9423 2.81002C11.9637 2.82044 11.9886 2.83287 12.0224 2.84977L12.6932 1.50813ZM12.0461 2.80479C12.0156 2.81051 11.9844 2.81051 11.9539 2.80479L12.2305 1.33052C12.0782 1.30194 11.9218 1.30194 11.7695 1.33052L12.0461 2.80479Z" fill="#70728F"/>
</svg>
