<svg width="24" height="24" viewBox="0 0 24 24" fill="none" xmlns="http://www.w3.org/2000/svg">
<path d="M13.53 11.5302C13.8229 11.2373 13.8229 10.7625 13.53 10.4696C13.2371 10.1767 12.7622 10.1767 12.4693 10.4696L13.53 11.5302ZM2.96931 19.9696C2.67642 20.2625 2.67642 20.7373 2.96931 21.0302C3.2622 21.3231 3.73708 21.3231 4.02997 21.0302L2.96931 19.9696ZM14.4327 2.91344C14.0876 2.68442 13.6221 2.77856 13.3931 3.1237C13.1641 3.46885 13.2582 3.9343 13.6034 4.16331L14.4327 2.91344ZM19.751 10.3212C19.9795 10.6668 20.4447 10.7617 20.7903 10.5333C21.1358 10.3049 21.2308 9.83961 21.0024 9.49407L19.751 10.3212ZM19.3482 2.27063L19.4715 3.01043L19.3482 2.27063ZM21.6498 4.57222L20.91 4.44892V4.44892L21.6498 4.57222ZM6.446 10.8985L5.8983 10.3861L6.446 10.8985ZM13.022 17.4744L12.5096 16.9267L13.022 17.4744ZM20.8321 9.47869L21.5719 9.60199L20.8321 9.47869ZM20.0911 10.8614L19.5788 10.3137L20.0911 10.8614ZM14.4418 3.08838L14.3185 2.34858L14.4418 3.08838ZM13.0591 3.82932L13.6068 4.34169V4.34169L13.0591 3.82932ZM6.37973 6.93776L6.14256 7.64927L6.37973 6.93776ZM9.01743 8.60756C9.41039 8.73855 9.83513 8.52618 9.96612 8.13322C10.0971 7.74026 9.88473 7.31552 9.49177 7.18454L9.01743 8.60756ZM2.56041 9.54065L3.04486 10.1132H3.04486L2.56041 9.54065ZM5.41756 7.12306L5.90202 7.6956L5.41756 7.12306ZM5.30856 12.9435C5.69723 13.0867 6.1284 12.8877 6.2716 12.499C6.41479 12.1104 6.21579 11.6792 5.82712 11.536L5.30856 12.9435ZM2.86064 11.2424L3.11992 10.5386H3.11992L2.86064 11.2424ZM12.6781 21.0596L11.9743 21.3189L12.6781 21.0596ZM12.3844 18.0932C12.2412 17.7045 11.8101 17.5055 11.4214 17.6487C11.0327 17.7919 10.8337 18.223 10.9769 18.6117L12.3844 18.0932ZM16.7974 18.5027L17.3699 18.9872L16.7974 18.5027ZM14.3798 21.3599L13.8073 20.8754H13.8073L14.3798 21.3599ZM16.7359 14.4285C16.6049 14.0355 16.1802 13.8232 15.7872 13.9542C15.3943 14.0851 15.1819 14.5099 15.3129 14.9028L16.7359 14.4285ZM16.9827 17.5405L17.6942 17.3034L16.9827 17.5405ZM12.4693 10.4696L2.96931 19.9696L4.02997 21.0302L13.53 11.5302L12.4693 10.4696ZM13.6034 4.16331C14.7797 4.94381 15.9117 5.86492 16.9705 6.92373L18.0311 5.86307C16.9019 4.73389 15.6925 3.74935 14.4327 2.91344L13.6034 4.16331ZM16.9705 6.92373C18.0384 7.99167 18.9663 9.13407 19.751 10.3212L21.0024 9.49407C20.1618 8.22256 19.17 7.00198 18.0311 5.86307L16.9705 6.92373ZM14.5651 3.82817L19.4715 3.01043L19.2249 1.53084L14.3185 2.34858L14.5651 3.82817ZM20.91 4.44892L20.0923 9.35539L21.5719 9.60199L22.3896 4.69552L20.91 4.44892ZM19.5788 10.3137L12.5096 16.9267L13.5343 18.0221L20.6035 11.4091L19.5788 10.3137ZM6.99371 11.4108L13.6068 4.34169L12.5114 3.31696L5.8983 10.3861L6.99371 11.4108ZM19.4715 3.01043C20.3175 2.86943 21.051 3.60289 20.91 4.44892L22.3896 4.69552C22.6998 2.83426 21.0862 1.22063 19.2249 1.53084L19.4715 3.01043ZM7.08411 16.8363C5.59587 15.3481 5.55588 12.9478 6.99371 11.4108L5.8983 10.3861C3.90781 12.5139 3.96318 15.8367 6.02345 17.897L7.08411 16.8363ZM6.02345 17.897C8.08371 19.9573 11.4066 20.0126 13.5343 18.0221L12.5096 16.9267C10.9726 18.3646 8.57234 18.3246 7.08411 16.8363L6.02345 17.897ZM20.0923 9.35539C20.0311 9.72258 19.8506 10.0594 19.5788 10.3137L20.6035 11.4091C21.1161 10.9295 21.4565 10.2944 21.5719 9.60199L20.0923 9.35539ZM14.3185 2.34858C13.626 2.46399 12.9909 2.80432 12.5114 3.31696L13.6068 4.34169C13.8611 4.06985 14.1979 3.88937 14.5651 3.82817L14.3185 2.34858ZM6.14256 7.64927L9.01743 8.60756L9.49177 7.18454L6.6169 6.22625L6.14256 7.64927ZM3.04486 10.1132L5.90202 7.6956L4.93311 6.55052L2.07595 8.96811L3.04486 10.1132ZM5.82712 11.536L3.11992 10.5386L2.60136 11.9461L5.30856 12.9435L5.82712 11.536ZM2.07595 8.96811C1.05233 9.83425 1.34314 11.4826 2.60136 11.9461L3.11992 10.5386C2.94018 10.4724 2.89863 10.2369 3.04486 10.1132L2.07595 8.96811ZM6.6169 6.22625C6.03751 6.03311 5.39934 6.15601 4.93311 6.55052L5.90202 7.6956C5.96862 7.63924 6.05979 7.62168 6.14256 7.64927L6.6169 6.22625ZM13.3818 20.8004L12.3844 18.0932L10.9769 18.6117L11.9743 21.3189L13.3818 20.8004ZM16.2249 18.0183L13.8073 20.8754L14.9523 21.8443L17.3699 18.9872L16.2249 18.0183ZM15.3129 14.9028L16.2712 17.7777L17.6942 17.3034L16.7359 14.4285L15.3129 14.9028ZM17.3699 18.9872C17.7644 18.5209 17.8873 17.8828 17.6942 17.3034L16.2712 17.7777C16.2988 17.8605 16.2812 17.9516 16.2249 18.0183L17.3699 18.9872ZM11.9743 21.3189C12.4379 22.5771 14.0862 22.8679 14.9523 21.8443L13.8073 20.8754C13.6835 21.0216 13.4481 20.9801 13.3818 20.8004L11.9743 21.3189Z" fill="#70728F"/>
</svg>
