<svg width="24" height="24" viewBox="0 0 24 24" fill="none" xmlns="http://www.w3.org/2000/svg">
  <path d="M20.4697 21.5303C20.7626 21.8232 21.2374 21.8232 21.5303 21.5303C21.8232 21.2374 21.8232 20.7626 21.5303 20.4697L20.4697 21.5303ZM18.0304 16.9697C17.7375 16.6768 17.2627 16.6768 16.9698 16.9697C16.6769 17.2626 16.6769 17.7374 16.9698 18.0303L18.0304 16.9697ZM21.5303 20.4697L18.0304 16.9697L16.9698 18.0303L20.4697 21.5303L21.5303 20.4697ZM19.25 11.5C19.25 15.7802 15.7802 19.25 11.5 19.25V20.75C16.6086 20.75 20.75 16.6086 20.75 11.5H19.25ZM11.5 19.25C7.21979 19.25 3.75 15.7802 3.75 11.5H2.25C2.25 16.6086 6.39137 20.75 11.5 20.75V19.25ZM3.75 11.5C3.75 7.21979 7.21979 3.75 11.5 3.75V2.25C6.39137 2.25 2.25 6.39137 2.25 11.5H3.75ZM11.5 3.75C15.7802 3.75 19.25 7.21979 19.25 11.5H20.75C20.75 6.39137 16.6086 2.25 11.5 2.25V3.75Z" fill="#70728F"/>
</svg>
