<svg width="24" height="24" viewBox="0 0 24 24" fill="none" xmlns="http://www.w3.org/2000/svg">
<path d="M12.9999 2L13.7441 2.09303C13.7854 1.76265 13.6039 1.4446 13.2985 1.31202C12.9931 1.17945 12.6368 1.26409 12.4237 1.51986L12.9999 2ZM11.9999 14L12.7441 14.093C12.7708 13.8796 12.7045 13.6649 12.5621 13.5036C12.4198 13.3424 12.215 13.25 11.9999 13.25V14ZM10.9999 22L10.2557 21.907C10.2144 22.2373 10.3958 22.5554 10.7012 22.688C11.0066 22.8206 11.3629 22.7359 11.576 22.4801L10.9999 22ZM11.9999 10L11.2557 9.90697C11.229 10.1204 11.2952 10.3351 11.4376 10.4964C11.58 10.6576 11.7847 10.75 11.9999 10.75V10ZM19.9064 11.3121L20.4826 11.7923L19.9064 11.3121ZM20.4323 10.5075L19.6824 10.4962L20.4323 10.5075ZM20.2466 10.1111L20.718 9.52777L20.2466 10.1111ZM4.09332 12.6879L3.51715 12.2077L4.09332 12.6879ZM3.56744 13.4925L4.31735 13.5038L3.56744 13.4925ZM3.75312 13.8889L3.28172 14.4722L3.75312 13.8889ZM12.4237 1.51986L3.51715 12.2077L4.66948 13.168L13.576 2.48014L12.4237 1.51986ZM4.7079 14.75H11.9999V13.25H4.7079V14.75ZM11.2557 13.907L10.2557 21.907L11.7441 22.093L12.7441 14.093L11.2557 13.907ZM11.576 22.4801L20.4826 11.7923L19.3302 10.832L10.4237 21.5199L11.576 22.4801ZM19.2918 9.25H11.9999V10.75H19.2918V9.25ZM12.7441 10.093L13.7441 2.09303L12.2557 1.90697L11.2557 9.90697L12.7441 10.093ZM20.4826 11.7923C20.6474 11.5945 20.8048 11.4068 20.9163 11.2454C21.0189 11.0968 21.1773 10.8429 21.1822 10.5188L19.6824 10.4962C19.6836 10.4165 19.7042 10.3639 19.7102 10.35C19.7149 10.3392 19.7113 10.3505 19.682 10.3929C19.6184 10.485 19.5142 10.6112 19.3302 10.832L20.4826 11.7923ZM19.2918 10.75C19.5792 10.75 19.7429 10.7507 19.8544 10.7608C19.9057 10.7655 19.9166 10.77 19.9054 10.7667C19.8908 10.7624 19.8372 10.7445 19.7752 10.6944L20.718 9.52777C20.4659 9.32405 20.1694 9.28322 19.9896 9.26694C19.7943 9.24926 19.5493 9.25 19.2918 9.25V10.75ZM21.1822 10.5188C21.188 10.1347 21.0168 9.76924 20.718 9.52777L19.7752 10.6944C19.7155 10.6462 19.6812 10.5731 19.6824 10.4962L21.1822 10.5188ZM3.51715 12.2077C3.35232 12.4055 3.19493 12.5932 3.08346 12.7546C2.98086 12.9032 2.82241 13.1571 2.81753 13.4812L4.31735 13.5038C4.31615 13.5835 4.29555 13.6361 4.28951 13.65C4.28484 13.6608 4.28838 13.6495 4.31769 13.6071C4.38129 13.515 4.48551 13.3888 4.66948 13.168L3.51715 12.2077ZM4.7079 13.25C4.42051 13.25 4.25684 13.2493 4.14537 13.2392C4.09402 13.2345 4.08309 13.23 4.09434 13.2333C4.10888 13.2376 4.16253 13.2555 4.22452 13.3056L3.28172 14.4722C3.53382 14.676 3.83031 14.7168 4.01012 14.7331C4.20545 14.7507 4.45042 14.75 4.7079 14.75V13.25ZM2.81753 13.4812C2.81173 13.8653 2.98291 14.2308 3.28172 14.4722L4.22452 13.3056C4.28428 13.3538 4.31851 13.4269 4.31735 13.5038L2.81753 13.4812Z" fill="#70728F"/>
</svg>
